<!-- Generator: Adobe Illustrator 19.0.0, SVG Export Plug-In . SVG Version: 6.00 Build 0)  -->
<svg version="1.1" id="Layer_1" xmlns="http://www.w3.org/2000/svg" xmlns:xlink="http://www.w3.org/1999/xlink" x="0px" y="0px"
	 viewBox="0 0 512 512" style="enable-background:new 0 0 512 512;" xml:space="preserve">
<path style="fill:#5A5D6F;" d="M373.213,133.077c4.197,9.717,8.192,19.884,11.952,30.287c16.03,44.32,27.852,93.061,33.657,130.595
	c2.353,15.238,3.712,28.632,3.96,39.13c-1.785-68.223-57.643-122.982-126.28-122.982c-68.649,0-124.507,54.758-126.292,122.982
	c0.863-36.742,15.38-108.926,38.326-171.687c3.511-9.623,7.223-19.021,11.112-28.029h152.879L373.213,133.077z"/>
<path style="fill:#9DA6BA;" d="M500.178,229.106v187.044c0,25.736-20.865,46.601-46.613,46.601H296.501
	c61.461,0,112.673-43.906,123.975-102.069h8.535c18.43,0,33.361-14.931,33.361-33.361c0-18.418-14.931-33.361-33.361-33.361h-10.19
	c-5.805-37.534-17.626-86.275-33.657-130.595l59.168,4.776C475.932,170.919,500.178,197.376,500.178,229.106z"/>
<g>
	<path style="fill:#5A5D6F;" d="M429.011,293.96c18.43,0,33.361,14.943,33.361,33.361c0,18.43-14.931,33.361-33.361,33.361h-8.535
		c1.537-7.85,2.341-15.948,2.341-24.246c0-1.123-0.012-2.234-0.035-3.346c-0.248-10.498-1.608-23.892-3.96-39.13H429.011z"/>
	<path style="fill:#5A5D6F;" d="M420.476,360.682c-11.302,58.163-62.513,102.069-123.975,102.069
		c-69.772,0-126.327-56.555-126.327-126.315c0-1.123,0.012-2.234,0.035-3.346c1.785-68.223,57.643-122.982,126.292-122.982
		c68.637,0,124.495,54.758,126.28,122.982c0.024,1.111,0.035,2.222,0.035,3.346C422.817,344.734,422.013,352.832,420.476,360.682z
		 M363.873,336.435c0-37.215-30.169-67.384-67.372-67.384c-37.215,0-67.384,30.169-67.384,67.384
		c0,37.215,30.169,67.384,67.384,67.384C333.704,403.819,363.873,373.65,363.873,336.435z"/>
</g>
<path style="fill:#9DA6BA;" d="M373.213,133.077l-0.686,0.296H219.648c8.429-19.506,17.685-37.227,27.592-51.519
	c2.814-4.055,7.389-6.502,12.318-6.502h9.564h54.747h9.576c4.918,0,9.505,2.447,12.306,6.502
	C355.61,96.075,364.831,113.678,373.213,133.077z"/>
<path style="fill:#94D8F2;" d="M296.501,269.051c37.203,0,67.372,30.169,67.372,67.384c0,37.215-30.169,67.384-67.372,67.384
	c-37.215,0-67.384-30.169-67.384-67.384S259.286,269.051,296.501,269.051z"/>
<g>
	<path style="fill:#9DA6BA;" d="M296.501,462.751H58.435c-25.748,0-46.613-20.865-46.613-46.601V230.725
		c0-32.392,25.251-59.18,57.584-61.083l12.082-0.721l88.687-5.249l38.362-2.27c-22.946,62.762-37.463,134.945-38.326,171.687
		c-0.024,1.111-0.035,2.222-0.035,3.346C170.174,406.195,226.729,462.751,296.501,462.751z M134.342,254.889
		c0-19.636-15.924-35.56-35.56-35.56s-35.548,15.924-35.548,35.56c0,19.624,15.912,35.548,35.548,35.548
		S134.342,274.513,134.342,254.889z"/>
	<polygon style="fill:#9DA6BA;" points="170.174,124.27 170.174,163.672 81.487,168.921 81.452,168.283 81.452,124.27 	"/>
</g>
<path style="fill:#5A5D6F;" d="M98.783,219.329c19.636,0,35.56,15.924,35.56,35.56c0,19.624-15.924,35.548-35.56,35.548
	s-35.548-15.924-35.548-35.548C63.235,235.253,79.147,219.329,98.783,219.329z"/>
<path d="M512,229.106c0-18.308-6.812-35.826-19.178-49.325c-12.366-13.497-29.219-21.813-47.539-23.424l-51.645-4.168
	c-3.108-8.27-6.315-16.255-9.573-23.801c-9.148-21.168-18.769-39.09-28.589-53.252c-4.588-6.641-11.867-10.826-19.786-11.498V49.249
	c0-6.528-5.294-11.822-11.822-11.822c-6.528,0-11.822,5.294-11.822,11.822V63.53h-31.104V49.249c0-6.528-5.294-11.822-11.822-11.822
	c-6.528,0-11.822,5.294-11.822,11.822v14.388c-7.903,0.675-15.177,4.852-19.777,11.481c-9.836,14.191-19.502,32.212-28.729,53.567
	c-0.002,0.006-0.006,0.013-0.008,0.02c-0.019,0.044-0.038,0.089-0.057,0.134c-2.911,6.748-5.787,13.859-8.584,21.218l-18.151,1.075
	V124.27c0-6.528-5.293-11.822-11.822-11.822h-88.72c-6.529,0-11.822,5.294-11.822,11.822v33.516l-0.919,0.054
	C30.181,160.109,0,192.124,0,230.725v185.424c0,32.214,26.214,58.423,58.435,58.423h395.13c32.221,0,58.435-26.209,58.435-58.423
	L512,229.106L512,229.106z M182.028,333.398c1.635-62.506,51.918-111.47,114.474-111.47c62.542,0,112.815,48.946,114.462,111.441
	c0.021,1.018,0.032,2.037,0.032,3.065c0,6.807-0.634,13.609-1.831,20.272c-0.39,1.092-0.623,2.257-0.674,3.472
	c-11.097,52.688-57.892,90.75-111.989,90.75c-63.139,0-114.505-51.361-114.505-114.494
	C181.996,335.396,182.006,334.37,182.028,333.398z M434.638,336.435c0-1.206-0.014-2.397-0.038-3.591
	c-0.001-0.021-0.001-0.041-0.001-0.064c-0.004-0.116-0.009-0.232-0.013-0.349c-0.195-7.599-0.92-16.435-2.146-26.351
	c10.248,1.65,18.11,10.532,18.11,21.239c0,10.111-7.013,18.594-16.424,20.9C434.461,344.304,434.638,340.369,434.638,336.435z
	 M392.967,237.553c-25.949-25.322-60.208-39.268-96.467-39.268c-36.263,0-70.525,13.946-96.476,39.268
	c-1.032,1.007-2.039,2.032-3.036,3.067c5.936-24.327,13.535-50.227,22.653-75.166c0.007-0.018,0.013-0.035,0.02-0.053
	c0.008-0.025,0.019-0.048,0.027-0.073c2.536-6.946,5.153-13.686,7.808-20.134h137.992c2.919,7.093,5.787,14.523,8.559,22.191
	c8.24,22.781,15.793,48.139,21.925,73.203C394.986,239.565,393.988,238.55,392.967,237.553z M256.953,88.592
	c0.624-0.902,1.575-1.419,2.604-1.419h73.886c1.01,0,1.975,0.523,2.591,1.415c6.37,9.187,12.695,20.236,18.891,32.961H238.069
	C244.283,108.796,250.607,97.748,256.953,88.592z M93.274,136.092h65.079v16.441l-65.079,3.854
	C93.274,156.386,93.274,136.092,93.274,136.092z M58.435,450.928c-19.184,0-34.791-15.601-34.791-34.78V230.725
	c0-26.101,20.407-47.749,46.467-49.283l121.415-7.191c-20.589,61.536-32.369,125.978-33.134,158.56c0,0.002,0,0.004,0,0.006
	c0,0.006,0,0.013-0.001,0.019c-0.025,1.196-0.039,2.389-0.039,3.597c0,47.593,24.197,89.642,60.934,114.494H58.435z
	 M488.357,416.149c0,19.178-15.607,34.78-34.791,34.78h-79.858c26.961-18.191,47.353-45.715,56.16-78.447
	c24.519-0.46,44.327-20.534,44.327-45.16c0-24.913-20.27-45.183-45.184-45.183h-0.161c-5.84-33.722-15.378-71.493-26.614-105.535
	l41.06,3.315c25.687,2.258,45.06,23.405,45.06,49.188v187.043H488.357z"/>
<path d="M296.501,415.641c43.667,0,79.194-35.531,79.194-79.206c0-9.448-1.65-18.696-4.902-27.486
	c-2.266-6.125-9.07-9.251-15.19-6.983c-6.124,2.266-9.249,9.066-6.983,15.19c2.278,6.154,3.432,12.641,3.432,19.28
	c0,30.637-24.92,55.562-55.55,55.562c-30.637,0-55.562-24.925-55.562-55.562s24.925-55.562,55.562-55.562
	c3.795,0,7.581,0.383,11.255,1.14c6.393,1.307,12.645-2.801,13.963-9.196c1.316-6.396-2.802-12.646-9.196-13.963
	c-5.239-1.078-10.629-1.624-16.021-1.624c-43.674,0-79.206,35.531-79.206,79.206S252.826,415.641,296.501,415.641z"/>
<path d="M331.825,293.552c0.789,0.653,1.573,1.337,2.332,2.037c2.273,2.095,5.146,3.129,8.009,3.129
	c3.187,0,6.365-1.281,8.695-3.809c4.425-4.801,4.121-12.279-0.679-16.705c-1.072-0.988-2.185-1.958-3.302-2.882
	c-5.035-4.16-12.487-3.447-16.643,1.586C326.081,281.944,326.792,289.395,331.825,293.552z"/>
<path d="M98.783,207.507c-26.12,0-47.37,21.254-47.37,47.38c0,26.12,21.25,47.37,47.37,47.37c26.126,0,47.382-21.251,47.382-47.37
	C146.164,228.763,124.909,207.507,98.783,207.507z M98.783,278.615c-13.082,0-23.726-10.644-23.726-23.726
	c0-13.088,10.643-23.737,23.726-23.737c13.089,0,23.738,10.649,23.738,23.737C122.521,267.971,111.872,278.615,98.783,278.615z"/>
<path d="M106.372,353.246H91.205c-6.529,0-11.822,5.294-11.822,11.822s5.293,11.822,11.822,11.822h15.167
	c6.529,0,11.822-5.294,11.822-11.822S112.901,353.246,106.372,353.246z"/>
<path d="M106.372,387.813H91.205c-6.529,0-11.822,5.294-11.822,11.822c0,6.528,5.293,11.822,11.822,11.822h15.167
	c6.529,0,11.822-5.294,11.822-11.822C118.194,393.106,112.901,387.813,106.372,387.813z"/>
<g>
</g>
<g>
</g>
<g>
</g>
<g>
</g>
<g>
</g>
<g>
</g>
<g>
</g>
<g>
</g>
<g>
</g>
<g>
</g>
<g>
</g>
<g>
</g>
<g>
</g>
<g>
</g>
<g>
</g>
</svg>
